<svg width="14" height="20" viewBox="0 0 14 20" fill="none" xmlns="http://www.w3.org/2000/svg">
<path fill-rule="evenodd" clip-rule="evenodd" d="M2 0C0.895431 0 0 0.895431 0 2V18C0 19.1046 0.89543 20 2 20H12C13.1046 20 14 19.1046 14 18V2C14 0.895431 13.1046 0 12 0H2ZM4 9C4 9.55228 3.55228 10 3 10C2.44772 10 2 9.55228 2 9C2 8.44771 2.44772 8 3 8C3.55228 8 4 8.44771 4 9ZM3 14C3.55228 14 4 13.5523 4 13C4 12.4477 3.55228 12 3 12C2.44772 12 2 12.4477 2 13C2 13.5523 2.44772 14 3 14ZM8 9C8 9.55228 7.55228 10 7 10C6.44772 10 6 9.55228 6 9C6 8.44771 6.44772 8 7 8C7.55228 8 8 8.44771 8 9ZM7 14C7.55228 14 8 13.5523 8 13C8 12.4477 7.55228 12 7 12C6.44772 12 6 12.4477 6 13C6 13.5523 6.44772 14 7 14ZM12 9C12 9.55228 11.5523 10 11 10C10.4477 10 10 9.55228 10 9C10 8.44771 10.4477 8 11 8C11.5523 8 12 8.44771 12 9ZM11 14C11.5523 14 12 13.5523 12 13C12 12.4477 11.5523 12 11 12C10.4477 12 10 12.4477 10 13C10 13.5523 10.4477 14 11 14ZM12 17C12 17.5523 11.5523 18 11 18C10.4477 18 10 17.5523 10 17C10 16.4477 10.4477 16 11 16C11.5523 16 12 16.4477 12 17ZM2 17C2 16.4477 2.44772 16 3 16H7C7.55228 16 8 16.4477 8 17C8 17.5523 7.55228 18 7 18H3C2.44772 18 2 17.5523 2 17ZM12 2H2V6H12V2Z" fill="#565656"/>
</svg>
