<svg width="21" height="12" viewBox="0 0 21 12" fill="none" xmlns="http://www.w3.org/2000/svg">
<path fill-rule="evenodd" clip-rule="evenodd" d="M1 0C0.447715 0 0 0.447715 0 1V11C0 11.5523 0.447715 12 1 12H20C20.5523 12 21 11.5523 21 11V1C21 0.447715 20.5523 0 20 0H1ZM14.5 6C14.5 8.20914 12.7091 10 10.5 10C8.29086 10 6.5 8.20914 6.5 6C6.5 3.79086 8.29086 2 10.5 2C12.7091 2 14.5 3.79086 14.5 6ZM10.5 8C11.6046 8 12.5 7.10457 12.5 6C12.5 4.89543 11.6046 4 10.5 4C9.39543 4 8.5 4.89543 8.5 6C8.5 7.10457 9.39543 8 10.5 8Z" fill="#565656"/>
</svg>
