<svg width="48" height="49" viewBox="0 0 48 49" fill="none" xmlns="http://www.w3.org/2000/svg">
<rect y="0.822876" width="47.7555" height="47.7555" rx="7.02287" fill="#FFF3F1"/>
<path d="M29.8804 24.5609C29.4562 24.0124 28.816 23.6356 27.96 23.4308C29.0501 22.8748 29.5292 21.931 29.3976 20.5995C29.3537 20.1166 29.2202 19.6981 28.997 19.3434C28.7736 18.9886 28.4722 18.7034 28.0915 18.4876C27.7112 18.2716 27.2975 18.1071 26.8514 17.9937C26.4053 17.8804 25.8931 17.798 25.3151 17.7469V14.9816H23.6254V17.67C23.3328 17.67 22.8866 17.6773 22.2867 17.692V14.9816H20.5968V17.7469C20.3553 17.7542 20.0005 17.7579 19.5324 17.7579L17.2061 17.7469V19.5465H18.424C18.98 19.5465 19.3056 19.7953 19.4006 20.2927V23.4421C19.4739 23.4421 19.5324 23.4459 19.5763 23.4532H19.4006V27.8643C19.3422 28.2373 19.1301 28.424 18.7642 28.424H17.5464L17.2061 30.4322H19.4008C19.5399 30.4322 19.7409 30.434 20.0044 30.4373C20.2677 30.441 20.4651 30.4429 20.5968 30.4429V33.241H22.2871V30.4758C22.5943 30.4833 23.0405 30.4868 23.6257 30.4868V33.241H25.3155V30.4429C25.9155 30.4137 26.4477 30.3591 26.912 30.2783C27.3766 30.1976 27.8211 30.0716 28.2453 29.8996C28.6695 29.7278 29.0242 29.5136 29.3095 29.2576C29.5949 29.0018 29.8306 28.6761 30.0175 28.281C30.2038 27.8858 30.3228 27.4286 30.3738 26.9091C30.4694 25.8925 30.3047 25.1097 29.8804 24.5609ZM22.3196 19.6669C22.3708 19.6669 22.5153 19.6651 22.7531 19.6614C22.9909 19.6576 23.1884 19.654 23.3457 19.6503C23.503 19.6467 23.7151 19.6558 23.9823 19.6778C24.2493 19.6997 24.4742 19.7291 24.657 19.7656C24.8399 19.8021 25.0412 19.8625 25.2605 19.9466C25.4801 20.0307 25.6556 20.1331 25.7871 20.2538C25.9189 20.3745 26.0304 20.5282 26.1217 20.7148C26.2133 20.9013 26.259 21.1153 26.259 21.3566C26.259 21.5615 26.2262 21.7481 26.1604 21.9164C26.0947 22.0847 25.9957 22.2255 25.8642 22.3389C25.7327 22.4523 25.5971 22.5512 25.458 22.6352C25.3192 22.7193 25.1416 22.787 24.9259 22.8382C24.7102 22.8894 24.5218 22.9296 24.361 22.9589C24.2 22.9881 23.9989 23.0083 23.7574 23.0192C23.5159 23.0302 23.333 23.0376 23.2087 23.0412C23.0843 23.0448 22.9142 23.0448 22.6983 23.0412C22.4824 23.0376 22.3564 23.0357 22.3197 23.0357V19.6669H22.3196V19.6669ZM26.9341 27.1397C26.8644 27.308 26.7749 27.4544 26.6653 27.5789C26.5554 27.703 26.4109 27.8129 26.2317 27.9078C26.0526 28.0031 25.8787 28.0798 25.7106 28.1383C25.5422 28.1971 25.3392 28.248 25.1016 28.292C24.8636 28.336 24.6552 28.3669 24.4758 28.3853C24.2967 28.4036 24.0828 28.4182 23.8339 28.4292C23.5853 28.44 23.3913 28.4456 23.2524 28.4456C23.1134 28.4456 22.9378 28.4436 22.7256 28.44C22.5133 28.4366 22.3781 28.4347 22.3195 28.4347V24.7256C22.378 24.7256 22.5518 24.722 22.8408 24.7146C23.1299 24.7072 23.3656 24.7038 23.5486 24.7038C23.7314 24.7038 23.9839 24.7146 24.3059 24.7367C24.6276 24.7584 24.8983 24.7912 25.118 24.8351C25.3374 24.8791 25.5768 24.9467 25.8367 25.0382C26.0963 25.1296 26.3067 25.2412 26.4677 25.3728C26.6287 25.5047 26.7639 25.6727 26.8736 25.8776C26.9836 26.0824 27.0384 26.3166 27.0384 26.58C27.0384 26.785 27.0037 26.9713 26.9341 27.1397Z" fill="#FD8A75"/>
</svg>
