<svg width="48" height="49" viewBox="0 0 48 49" fill="none" xmlns="http://www.w3.org/2000/svg">
<rect y="0.653076" width="47.7555" height="47.7555" rx="7.02287" fill="#FCF6DD"/>
<path d="M16.619 33.3796V15.6819H22.0547C25.1729 15.6819 27.4651 16.4741 28.9315 18.0585C30.4148 19.6428 31.1564 21.8171 31.1564 24.5813C31.1564 27.295 30.4148 29.444 28.9315 31.0283C27.4651 32.5958 25.1729 33.3796 22.0547 33.3796H16.619ZM18.7427 31.6098H22.0042C23.7234 31.6098 25.0886 31.3317 26.0999 30.7755C27.128 30.2024 27.8612 29.3934 28.2995 28.3484C28.7377 27.2865 28.9568 26.0309 28.9568 24.5813C28.9568 23.0981 28.7377 21.8256 28.2995 20.7637C27.8612 19.7018 27.128 18.8844 26.0999 18.3113C25.0886 17.7382 23.7234 17.4517 22.0042 17.4517H18.7427V31.6098Z" fill="#EAC52D"/>
<rect x="14.748" y="21.6431" width="18.2595" height="1.75572" fill="#EAC52D"/>
<rect x="14.748" y="25.2656" width="18.2595" height="1.75572" fill="#EAC52D"/>
<path d="M16.619 33.3796V15.6819H22.0547C25.1729 15.6819 27.4651 16.4741 28.9315 18.0585C30.4148 19.6428 31.1564 21.8171 31.1564 24.5813C31.1564 27.295 30.4148 29.444 28.9315 31.0283C27.4651 32.5958 25.1729 33.3796 22.0547 33.3796H16.619ZM18.7427 31.6098H22.0042C23.7234 31.6098 25.0886 31.3317 26.0999 30.7755C27.128 30.2024 27.8612 29.3934 28.2995 28.3484C28.7377 27.2865 28.9568 26.0309 28.9568 24.5813C28.9568 23.0981 28.7377 21.8256 28.2995 20.7637C27.8612 19.7018 27.128 18.8844 26.0999 18.3113C25.0886 17.7382 23.7234 17.4517 22.0042 17.4517H18.7427V31.6098Z" fill="#EAC52D"/>
<rect x="14.748" y="21.6431" width="18.2595" height="1.75572" fill="#EAC52D"/>
<rect x="14.748" y="25.2656" width="18.2595" height="1.75572" fill="#EAC52D"/>
</svg>
