<svg width="20" height="12" viewBox="0 0 20 12" fill="none" xmlns="http://www.w3.org/2000/svg">
<path fill-rule="evenodd" clip-rule="evenodd" d="M1.28052 0C0.728233 0 0.280518 0.447715 0.280518 1V9C0.280518 10.6569 1.62367 12 3.28052 12H16.7192C18.3761 12 19.7192 10.6569 19.7192 9V1C19.7192 0.447715 19.2715 0 18.7192 0H1.28052ZM9.99998 3C9.44769 3 8.99998 3.44772 8.99998 4V8C8.99998 8.55228 9.44769 9 9.99998 9C10.5523 9 11 8.55228 11 8V4C11 3.44772 10.5523 3 9.99998 3ZM4.25759 4.36104C4.11465 3.82758 4.43124 3.27924 4.9647 3.1363C5.49817 2.99336 6.0465 3.30994 6.18945 3.8434L7.22472 7.70711C7.36766 8.24057 7.05108 8.78891 6.51762 8.93185C5.98415 9.07479 5.43581 8.75821 5.29287 8.22474L4.25759 4.36104ZM15.0353 3.1363C14.5018 2.99335 13.9535 3.30994 13.8105 3.8434L12.7752 7.70711C12.6323 8.24057 12.9489 8.78891 13.4823 8.93185C14.0158 9.07479 14.5641 8.75821 14.7071 8.22474L15.7424 4.36104C15.8853 3.82758 15.5687 3.27924 15.0353 3.1363Z" fill="#565656"/>
</svg>
