<svg width="24" height="24" viewBox="0 0 24 24" fill="none" xmlns="http://www.w3.org/2000/svg">
<g id="Stockholm-icons / Tools / Swiss-knife">
<path id="Combined Shape" opacity="0.3" fill-rule="evenodd" clip-rule="evenodd" d="M15.7843 14H20V2C16.6863 2 14 4.68629 14 8V12.1716L7.82843 6C6.26633 7.5621 6.26634 10.0948 7.82843 11.6569L12.9779 16.8063L15.7843 14Z" fill="#565656"/>
<path id="Combined Shape_2" fill-rule="evenodd" clip-rule="evenodd" d="M5.5 12C3.01472 12 1 14.0147 1 16.5C1 18.9853 3.01472 21 5.5 21H18.5C20.9853 21 23 18.9853 23 16.5C23 14.0147 20.9853 12 18.5 12H5.5ZM21 16.5C21 17.3284 20.3284 18 19.5 18C18.6716 18 18 17.3284 18 16.5C18 15.6716 18.6716 15 19.5 15C20.3284 15 21 15.6716 21 16.5Z" fill="#565656"/>
</g>
</svg>
